PathFileType  4	(X/Y/Z) C:\Users\antoi\Documents\MyRepositories\mobilecap\ResultsAnalysis
DataRate	CameraRate	NumFrames	NumMarkers	Units	OrigDataRate	OrigDataStartFrame	OrigNumFrames
100.0	100.0	6	51	mm	100.0	1	130
Frame#	Time	r_knee			r_shank_antsup			r_ankle			r_calc			r_5meta			r_toe			L_knee			L_shank_antsup			L_ankle			L_calc			L_5meta			L_toe			r_sh2			r_sh3			r_sh4			L_sh2			L_sh3			r_thigh1			r_thigh2			r_thigh3			r_thigh4			r_thigh5			L_thigh1			L_thigh2			L_thigh3			L_thigh4			r.ASIS			r.PSIS			L.ASIS			L.PSIS			C7			R_Shoulder			L_Shoulder			R_Sternum			L_Sternum			R_humerus			R_elbow_med			R_elbow_lat			R_forearm			R_wrist_radius			R_wrist_ulna			L_humerus			L_elbow_med			L_elbow_lat			L_forearm			L_wrist_radius			L_wrist_ulna			R_HJC			L_HJC			R_HJC_reg			L_HJC_reg			
		X1	Y1	Z1	X2	Y2	Z2	X3	Y3	Z3	X4	Y4	Z4	X5	Y5	Z5	X6	Y6	Z6	X7	Y7	Z7	X8	Y8	Z8	X9	Y9	Z9	X10	Y10	Z10	X11	Y11	Z11	X12	Y12	Z12	X13	Y13	Z13	X14	Y14	Z14	X15	Y15	Z15	X16	Y16	Z16	X17	Y17	Z17	X18	Y18	Z18	X19	Y19	Z19	X20	Y20	Z20	X21	Y21	Z21	X22	Y22	Z22	X23	Y23	Z23	X24	Y24	Z24	X25	Y25	Z25	X26	Y26	Z26	X27	Y27	Z27	X28	Y28	Z28	X29	Y29	Z29	X30	Y30	Z30	X31	Y31	Z31	X32	Y32	Z32	X33	Y33	Z33	X34	Y34	Z34	X35	Y35	Z35	X36	Y36	Z36	X37	Y37	Z37	X38	Y38	Z38	X39	Y39	Z39	X40	Y40	Z40	X41	Y41	Z41	X42	Y42	Z42	X43	Y43	Z43	X44	Y44	Z44	X45	Y45	Z45	X46	Y46	Z46	X47	Y47	Z47	X48	Y48	Z48	X49	Y49	Z49	X50	Y50	Z50	X51	Y51	Z51	

1	0.00000000	-150.15781	465.55856	-109.43097	-114.98128	407.22974	-84.95091	0.35715	121.76482	-123.42946	-33.97701	58.67434	-172.60574	112.47355	124.92004	-85.40072	142.22727	170.47773	-132.98940	-481.50837	465.63030	-376.87300	-479.38600	395.71648	-377.55069	-626.98809	121.54847	-341.94046	-705.59022	109.07142	-300.86146	-555.16520	44.45240	-365.44820	-502.52147	53.03087	-309.84581	-69.88039	304.82494	-82.46098	-181.56467	377.47305	-105.28790	-140.24533	269.10266	-109.63564	-559.92836	435.33318	-390.07893	-602.41717	320.66764	-388.45373	-213.44230	769.74784	-115.21737	-162.71337	669.37435	-107.81900	-199.60863	631.89386	-64.18318	-300.94097	733.81759	-57.05519	-257.95372	624.37287	-63.31922	-327.83447	716.35407	-420.42268	-366.36078	584.24099	-407.53576	-440.96374	746.88543	-426.91652	-472.35990	611.16932	-401.02130	-250.91803	894.67728	-133.30254	-440.97950	898.16135	-184.54053	-280.48394	887.15690	-390.70151	-456.48449	901.71288	-288.62608	-395.95790	1370.49459	-243.43350	-341.80819	1308.79741	-89.34592	-335.62418	1325.51599	-407.34960	-281.10471	1286.86011	-226.12346	-281.37352	1288.52333	-270.87243	-346.52227	1068.34117	-12.01154	-384.31096	966.46986	-71.12313	-379.14992	985.85255	-1.88873	-344.18492	874.87533	32.65967	-337.11274	755.98639	48.22444	-379.34744	751.32833	45.22569	-276.20250	1211.18935	-463.23909	-274.11787	985.97483	-454.31280	-261.66630	1004.80994	-511.34365	-156.80884	965.06103	-518.58125	-59.83435	885.57912	-502.11398	-78.33916	858.31369	-523.23036	-315.22440	814.56686	-152.73013	-337.06002	814.25627	-351.82851	-306.58068	799.42579	-165.11999	-331.77163	805.19605	-334.22917	
2	0.01000000	-133.12699	464.49594	-109.37844	-96.72561	406.56907	-85.45440	20.00027	121.00264	-124.41877	-14.70125	56.33409	-171.25496	133.30556	126.58852	-89.93339	160.53020	171.93189	-139.12570	-470.02341	465.29891	-376.54362	-468.92134	394.90838	-377.44986	-623.65055	124.71620	-342.23481	-702.59167	114.12786	-300.97068	-554.24837	45.05232	-365.40658	-501.29925	52.68735	-309.84810	-50.74890	304.33748	-83.08753	-163.58894	376.00367	-103.55332	-121.71244	267.94756	-107.68070	-548.51124	436.65282	-390.42522	-593.82691	323.06001	-388.63023	-196.15154	768.12326	-114.82793	-145.83050	667.39836	-107.25298	-182.09872	630.29592	-62.68916	-283.26070	732.55535	-55.26116	-240.57481	623.53907	-61.46343	-314.12931	714.73363	-420.03442	-353.82031	582.98336	-407.81392	-427.12766	746.34336	-425.15320	-459.41750	610.74597	-399.85507	-234.56464	892.65664	-133.07553	-424.83572	895.54590	-181.84510	-266.00790	885.19081	-390.59820	-441.00070	899.03990	-285.70986	-380.32630	1368.39325	-242.32691	-326.16850	1306.54033	-88.26060	-320.20063	1322.96098	-406.35531	-265.48362	1284.63124	-225.23088	-265.99224	1286.24745	-269.97392	-331.43301	1066.11015	-10.76250	-369.10512	964.14586	-69.81975	-364.20561	983.67027	-0.63562	-330.31033	872.79392	34.52787	-324.09998	753.99647	50.60250	-367.37613	750.53605	47.28881	-259.97011	1209.04192	-462.10982	-257.11937	983.87520	-453.55546	-244.61631	1002.98910	-510.50873	-139.43348	963.92004	-517.21385	-41.83974	885.25249	-500.33556	-60.05849	857.87204	-521.57255	-298.31657	812.33429	-151.76425	-322.24255	812.07878	-350.60175	-290.25359	797.21433	-164.58492	-316.58616	802.90386	-333.74962	
3	0.02000000	-115.77164	463.51083	-109.42300	-78.43303	405.72678	-85.99798	38.40558	119.65229	-125.44684	3.09241	53.83962	-170.12554	152.84271	127.08886	-94.35955	177.79593	172.23715	-144.99531	-458.19683	464.90460	-376.28164	-458.15414	394.05486	-377.39804	-620.10158	128.00430	-342.57253	-699.35667	119.40561	-301.10995	-553.25949	45.69485	-365.37686	-500.02839	52.33887	-309.86404	-32.06996	303.49661	-83.76585	-145.66437	374.67931	-101.92095	-103.70958	266.75698	-105.85271	-536.72701	437.92080	-390.74654	-584.92308	325.48398	-388.84363	-178.76344	766.71592	-114.45045	-128.67537	665.73955	-106.85958	-164.25007	628.96332	-61.39590	-265.42023	731.36391	-53.50960	-222.76707	622.81680	-59.72311	-300.23827	713.14983	-419.59646	-341.01412	581.73442	-408.04729	-413.05911	745.77514	-423.33282	-446.20406	610.27080	-398.68386	-218.10748	890.81701	-132.74438	-408.56078	893.04895	-179.24260	-251.31050	883.27714	-390.35761	-425.34974	896.47393	-282.88001	-364.66104	1366.33292	-241.16497	-310.46945	1304.35752	-87.12263	-304.72057	1320.48330	-405.26399	-249.77914	1282.46155	-224.27720	-250.51877	1284.03491	-269.02367	-316.24953	1063.95354	-9.48342	-353.81689	961.90932	-68.51503	-349.17097	981.55934	0.62909	-316.27087	870.77207	36.36958	-310.87804	752.06468	52.91894	-355.00277	749.61682	49.25916	-243.71867	1206.98186	-460.88551	-240.20036	981.84380	-452.73642	-227.70021	1001.25661	-509.64655	-122.18203	962.76301	-515.81485	-24.05587	884.80041	-498.56359	-41.99258	857.29658	-519.92665	-281.31778	810.26413	-150.71692	-307.18547	809.97153	-349.30841	-273.76312	795.12506	-163.95282	-301.17873	800.71473	-333.15465	
4	0.03000000	-97.90214	462.61792	-109.63383	-60.12188	404.54868	-86.61507	54.66627	117.32351	-126.53335	18.29474	51.19577	-169.38278	170.10691	125.52623	-98.55571	193.29647	170.49331	-150.35077	-445.73034	464.38128	-376.13807	-446.82676	393.10521	-377.43487	-616.15322	131.51132	-342.97320	-695.67525	125.09899	-301.28384	-552.13402	46.42082	-365.36345	-498.66752	51.97857	-309.89923	-14.20416	302.03024	-84.54393	-127.87006	373.57891	-100.48946	-86.65429	265.48914	-104.26557	-524.27314	439.09785	-391.02086	-575.44043	327.95945	-389.11073	-161.18812	765.66144	-114.10321	-111.04663	664.59148	-106.77323	-145.85609	628.04622	-60.48666	-247.29401	730.27888	-51.84505	-204.27634	622.24528	-58.22272	-285.99490	711.62630	-419.05948	-327.70597	580.49188	-408.19558	-398.56748	745.14860	-421.40821	-432.48829	609.68987	-397.50145	-201.44032	889.28172	-132.22683	-392.03832	890.75502	-176.80011	-236.20522	881.44974	-389.86870	-409.38984	894.10427	-280.20574	-348.93483	1364.34487	-239.89616	-294.65867	1302.31172	-85.88467	-289.14647	1318.14313	-403.99467	-233.92854	1280.40069	-223.21008	-234.87983	1281.93988	-267.97387	-300.89457	1061.93095	-8.14637	-338.37292	959.83197	-67.20242	-333.96555	979.57695	1.91943	-301.93037	868.85748	38.16278	-297.26916	750.23577	55.12008	-341.93528	748.50179	51.07174	-227.44221	1205.07700	-459.48758	-223.43369	979.93483	-451.80816	-211.02236	999.67337	-508.72879	-105.16380	961.57517	-514.36350	-6.65913	884.12026	-496.81005	-24.32080	856.48410	-518.30963	-264.14482	808.46877	-149.52641	-291.69286	807.98594	-347.89851	-256.96474	793.22992	-163.15673	-285.36093	798.70762	-332.36107	
5	0.04000000	-79.54885	461.75095	-110.03271	-41.90223	402.94083	-87.32424	68.40169	113.94694	-127.67266	30.39544	48.63491	-169.10399	184.62246	121.47309	-102.38056	206.78041	166.22120	-154.98975	-432.40008	463.66247	-376.13841	-434.75739	392.00651	-377.58604	-611.65085	135.30021	-343.41836	-691.36549	131.35704	-301.45662	-550.81746	47.27316	-365.35739	-497.18662	51.59871	-309.94615	2.63657	299.81412	-85.46088	-110.32956	372.68786	-99.34632	-70.77790	264.10330	-103.01073	-510.94902	440.15939	-391.23639	-565.19309	330.48920	-389.41629	-143.36854	764.96930	-113.80707	-92.87774	663.95703	-107.05763	-126.92647	627.52078	-60.09610	-228.83173	729.28968	-50.31025	-185.12198	621.76879	-57.08233	-271.27447	710.16904	-418.37899	-313.71534	579.23998	-408.23043	-383.53889	744.42312	-419.35203	-418.10900	608.94616	-396.30316	-184.47591	888.08253	-131.47790	-375.19213	888.69862	-174.54260	-220.57696	879.71640	-389.06748	-393.03565	891.98984	-277.72857	-333.14005	1362.45005	-238.47778	-278.70528	1300.44834	-84.50921	-273.48162	1315.97554	-402.49662	-217.91065	1278.48748	-221.99175	-219.04375	1280.00434	-266.78470	-285.32697	1060.08018	-6.72881	-322.72438	957.96118	-65.86843	-318.53508	977.75929	3.25154	-287.20594	867.08013	39.89215	-283.15605	748.53490	57.16484	-328.05163	747.20237	52.70189	-211.16503	1203.36375	-457.86869	-206.89103	978.17938	-450.74632	-194.65256	998.25859	-507.72806	-88.47436	960.34310	-512.85806	10.22039	883.14655	-495.09720	-7.17715	855.38139	-516.74759	-246.74457	806.98217	-148.16429	-275.65586	806.14534	-346.35034	-239.76678	791.52990	-162.17506	-269.01948	796.92210	-331.33611	
6	0.05000000	-60.94133	460.79538	-110.59122	-23.94833	400.89616	-88.12665	79.77088	109.76990	-128.84641	39.50198	46.55943	-169.28164	196.42607	115.00731	-105.70101	218.45666	159.38950	-158.79008	-418.04599	462.68886	-376.28472	-421.83260	390.71289	-377.86620	-606.46145	139.40244	-343.85289	-686.24854	138.29104	-301.55507	-549.26214	48.30346	-365.33434	-495.56482	51.19037	-309.98298	18.42310	296.89944	-86.54375	-93.17862	371.91787	-98.55925	-56.08278	262.57682	-102.15605	-496.63784	441.08985	-391.39972	-554.06706	333.06631	-389.71490	-125.29049	764.52677	-113.57271	-74.24890	663.65609	-107.68753	-107.67030	627.20258	-60.27313	-210.06720	728.35478	-48.93626	-165.56345	621.26994	-56.38144	-255.98927	708.76908	-417.52089	-298.91205	577.95410	-408.14365	-367.92815	743.55050	-417.15913	-402.96543	607.98043	-395.08861	-167.15808	887.15644	-130.49368	-357.98961	886.86904	-172.44837	-204.38496	878.06223	-387.94549	-376.25841	890.15154	-275.45709	-317.28107	1360.66378	-236.87791	-262.59373	1298.79389	-82.96777	-257.76450	1313.99185	-400.75457	-201.73677	1276.75489	-220.59756	-203.01599	1278.25973	-265.42483	-269.53286	1058.41702	-5.21394	-306.84183	956.31777	-64.49318	-302.84739	976.12076	4.64243	-272.05907	865.45059	41.55101	-268.47953	746.96754	59.02796	-313.37110	745.78693	54.16115	-194.93391	1201.84325	-456.01887	-190.63489	976.58127	-449.54895	-178.62434	996.99156	-506.62166	-72.18656	959.05152	-511.31678	26.51100	881.85043	-493.45765	9.35672	853.98475	-515.27630	-229.09704	805.75882	-146.63708	-259.05780	804.44511	-344.67175	-222.14620	789.96988	-161.02551	-252.12759	795.35299	-330.09473	
